<svg width="20" height="21" viewBox="0 0 20 21" fill="none" xmlns="http://www.w3.org/2000/svg">
<g id="Attach money" clip-path="url(#clip0_23_983)">
<path id="Vector" d="M9.83327 9.58333C7.9416 9.09167 7.33327 8.58333 7.33327 7.79167C7.33327 6.88333 8.17493 6.25 9.58327 6.25C11.0666 6.25 11.6166 6.95833 11.6666 8H13.5083C13.4499 6.56667 12.5749 5.25 10.8333 4.825V3H8.33327V4.8C6.7166 5.15 5.4166 6.2 5.4166 7.80833C5.4166 9.73333 7.00827 10.6917 9.33327 11.25C11.4166 11.75 11.8333 12.4833 11.8333 13.2583C11.8333 13.8333 11.4249 14.75 9.58327 14.75C7.8666 14.75 7.1916 13.9833 7.09994 13H5.2666C5.3666 14.825 6.73327 15.85 8.33327 16.1917V18H10.8333V16.2083C12.4583 15.9 13.7499 14.9583 13.7499 13.25C13.7499 10.8833 11.7249 10.075 9.83327 9.58333Z" fill="#1D3A6B"/>
</g>
<defs>
<clipPath id="clip0_23_983">
<rect width="20" height="20" fill="white" transform="translate(0 0.5)"/>
</clipPath>
</defs>
</svg>
