<svg width="20" height="20" viewBox="0 0 20 20" fill="none" xmlns="http://www.w3.org/2000/svg">
<g id="Home work" clip-path="url(#clip0_151_291)">
<path id="Vector" d="M14.1666 12.4987H15.8333V14.1654H14.1666V12.4987ZM14.1666 9.16536H15.8333V10.832H14.1666V9.16536ZM14.1666 5.83203H15.8333V7.4987H14.1666V5.83203ZM11.45 5.83203L12.5 6.53203V5.83203H11.45Z" fill="#1D3A6B"/>
<path id="Vector_2" d="M8.33337 2.5V3.75833L10 4.86667V4.16667H17.5V15.8333H14.1667V17.5H19.1667V2.5H8.33337Z" fill="#1D3A6B"/>
<path id="Vector_3" d="M6.80837 4.75L12.5 8.54167V17.5H0.833374V8.73333L6.80837 4.75ZM8.33337 15.8333H10.8334V9.3L6.80837 6.74167L2.50004 9.48333V15.8333H5.00004V10.8333H8.33337V15.8333Z" fill="#1D3A6B"/>
</g>
<defs>
<clipPath id="clip0_151_291">
<rect width="20" height="20" fill="white"/>
</clipPath>
</defs>
</svg>
