<svg width="20" height="21" viewBox="0 0 20 21" fill="none" xmlns="http://www.w3.org/2000/svg">
<g id="Groups" clip-path="url(#clip0_19_741)">
<g id="Group">
<path id="Vector" d="M3.33333 11.3333C4.25 11.3333 5 10.5833 5 9.66667C5 8.75 4.25 8 3.33333 8C2.41667 8 1.66667 8.75 1.66667 9.66667C1.66667 10.5833 2.41667 11.3333 3.33333 11.3333ZM4.275 12.25C3.96667 12.2 3.65833 12.1667 3.33333 12.1667C2.50833 12.1667 1.725 12.3417 1.01667 12.65C0.4 12.9167 0 13.5167 0 14.1917V15.5H3.75V14.1583C3.75 13.4667 3.94167 12.8167 4.275 12.25ZM16.6667 11.3333C17.5833 11.3333 18.3333 10.5833 18.3333 9.66667C18.3333 8.75 17.5833 8 16.6667 8C15.75 8 15 8.75 15 9.66667C15 10.5833 15.75 11.3333 16.6667 11.3333ZM20 14.1917C20 13.5167 19.6 12.9167 18.9833 12.65C18.275 12.3417 17.4917 12.1667 16.6667 12.1667C16.3417 12.1667 16.0333 12.2 15.725 12.25C16.0583 12.8167 16.25 13.4667 16.25 14.1583V15.5H20V14.1917ZM13.5333 11.875C12.5583 11.4417 11.3583 11.125 10 11.125C8.64167 11.125 7.44167 11.45 6.46667 11.875C5.56667 12.275 5 13.175 5 14.1583V15.5H15V14.1583C15 13.175 14.4333 12.275 13.5333 11.875ZM6.725 13.8333C6.8 13.6417 6.83333 13.5083 7.48333 13.2583C8.29167 12.9417 9.14167 12.7917 10 12.7917C10.8583 12.7917 11.7083 12.9417 12.5167 13.2583C13.1583 13.5083 13.1917 13.6417 13.275 13.8333H6.725ZM10 7.16667C10.4583 7.16667 10.8333 7.54167 10.8333 8C10.8333 8.45833 10.4583 8.83333 10 8.83333C9.54167 8.83333 9.16667 8.45833 9.16667 8C9.16667 7.54167 9.54167 7.16667 10 7.16667ZM10 5.5C8.61667 5.5 7.5 6.61667 7.5 8C7.5 9.38333 8.61667 10.5 10 10.5C11.3833 10.5 12.5 9.38333 12.5 8C12.5 6.61667 11.3833 5.5 10 5.5Z" fill="#1D3A6B"/>
</g>
</g>
<defs>
<clipPath id="clip0_19_741">
<rect width="20" height="20" fill="white" transform="translate(0 0.5)"/>
</clipPath>
</defs>
</svg>
