<svg width="20" height="21" viewBox="0 0 20 21" fill="none" xmlns="http://www.w3.org/2000/svg">
<g id="Lightbulb" clip-path="url(#clip0_19_736)">
<path id="Vector" d="M7.50008 18.0013C7.50008 18.4596 7.87508 18.8346 8.33342 18.8346H11.6667C12.1251 18.8346 12.5001 18.4596 12.5001 18.0013V17.168H7.50008V18.0013ZM10.0001 2.16797C6.78341 2.16797 4.16675 4.78464 4.16675 8.0013C4.16675 9.98464 5.15841 11.7263 6.66675 12.7846V14.668C6.66675 15.1263 7.04175 15.5013 7.50008 15.5013H12.5001C12.9584 15.5013 13.3334 15.1263 13.3334 14.668V12.7846C14.8417 11.7263 15.8334 9.98464 15.8334 8.0013C15.8334 4.78464 13.2167 2.16797 10.0001 2.16797ZM12.3751 11.418L11.6667 11.918V13.8346H8.33342V11.918L7.62508 11.418C6.50008 10.6346 5.83341 9.35964 5.83341 8.0013C5.83341 5.7013 7.70008 3.83464 10.0001 3.83464C12.3001 3.83464 14.1667 5.7013 14.1667 8.0013C14.1667 9.35964 13.5001 10.6346 12.3751 11.418Z" fill="#448AFF"/>
</g>
<defs>
<clipPath id="clip0_19_736">
<rect width="20" height="20" fill="white" transform="translate(0 0.5)"/>
</clipPath>
</defs>
</svg>
