<svg width="20" height="21" viewBox="0 0 20 21" fill="none" xmlns="http://www.w3.org/2000/svg">
<g id="Lightbulb" clip-path="url(#clip0_15_560)">
<path id="Vector" d="M7.49999 18.0013C7.49999 18.4596 7.87499 18.8346 8.33332 18.8346H11.6667C12.125 18.8346 12.5 18.4596 12.5 18.0013V17.168H7.49999V18.0013ZM9.99999 2.16797C6.78332 2.16797 4.16666 4.78464 4.16666 8.0013C4.16666 9.98464 5.15832 11.7263 6.66666 12.7846V14.668C6.66666 15.1263 7.04166 15.5013 7.49999 15.5013H12.5C12.9583 15.5013 13.3333 15.1263 13.3333 14.668V12.7846C14.8417 11.7263 15.8333 9.98464 15.8333 8.0013C15.8333 4.78464 13.2167 2.16797 9.99999 2.16797ZM12.375 11.418L11.6667 11.918V13.8346H8.33332V11.918L7.62499 11.418C6.49999 10.6346 5.83332 9.35964 5.83332 8.0013C5.83332 5.7013 7.69999 3.83464 9.99999 3.83464C12.3 3.83464 14.1667 5.7013 14.1667 8.0013C14.1667 9.35964 13.5 10.6346 12.375 11.418Z" fill="#1D3A6B"/>
</g>
<defs>
<clipPath id="clip0_15_560">
<rect width="20" height="20" fill="white" transform="translate(0 0.5)"/>
</clipPath>
</defs>
</svg>
