<svg width="20" height="20" viewBox="0 0 20 20" fill="none" xmlns="http://www.w3.org/2000/svg">
<g id="Pending" clip-path="url(#clip0_6_86)">
<g id="Group">
<g id="Group_2">
<path id="Vector" d="M9.99996 1.66797C5.39996 1.66797 1.66663 5.4013 1.66663 10.0013C1.66663 14.6013 5.39996 18.3346 9.99996 18.3346C14.6 18.3346 18.3333 14.6013 18.3333 10.0013C18.3333 5.4013 14.6 1.66797 9.99996 1.66797ZM9.99996 16.668C6.31663 16.668 3.33329 13.6846 3.33329 10.0013C3.33329 6.31797 6.31663 3.33464 9.99996 3.33464C13.6833 3.33464 16.6666 6.31797 16.6666 10.0013C16.6666 13.6846 13.6833 16.668 9.99996 16.668Z" fill="black"/>
<path id="Vector_2" d="M5.83325 11.25C6.52361 11.25 7.08325 10.6904 7.08325 10C7.08325 9.30964 6.52361 8.75 5.83325 8.75C5.1429 8.75 4.58325 9.30964 4.58325 10C4.58325 10.6904 5.1429 11.25 5.83325 11.25Z" fill="black"/>
<path id="Vector_3" d="M10 11.25C10.6904 11.25 11.25 10.6904 11.25 10C11.25 9.30964 10.6904 8.75 10 8.75C9.30964 8.75 8.75 9.30964 8.75 10C8.75 10.6904 9.30964 11.25 10 11.25Z" fill="black"/>
<path id="Vector_4" d="M14.1666 11.25C14.857 11.25 15.4166 10.6904 15.4166 10C15.4166 9.30964 14.857 8.75 14.1666 8.75C13.4763 8.75 12.9166 9.30964 12.9166 10C12.9166 10.6904 13.4763 11.25 14.1666 11.25Z" fill="black"/>
</g>
</g>
</g>
<defs>
<clipPath id="clip0_6_86">
<rect width="20" height="20" fill="white"/>
</clipPath>
</defs>
</svg>
