<svg width="46" height="46" viewBox="0 0 46 46" fill="none" xmlns="http://www.w3.org/2000/svg">
<g id="Person" clip-path="url(#clip0_11_410)">
<path id="Vector" d="M23 11.5013C25.1083 11.5013 26.8333 13.2263 26.8333 15.3346C26.8333 17.443 25.1083 19.168 23 19.168C20.8917 19.168 19.1667 17.443 19.1667 15.3346C19.1667 13.2263 20.8917 11.5013 23 11.5013ZM23 30.668C28.175 30.668 34.1167 33.1405 34.5 34.5013H11.5C11.9408 33.1213 17.8442 30.668 23 30.668ZM23 7.66797C18.7642 7.66797 15.3333 11.0988 15.3333 15.3346C15.3333 19.5705 18.7642 23.0013 23 23.0013C27.2358 23.0013 30.6667 19.5705 30.6667 15.3346C30.6667 11.0988 27.2358 7.66797 23 7.66797ZM23 26.8346C17.8825 26.8346 7.66667 29.403 7.66667 34.5013V38.3346H38.3333V34.5013C38.3333 29.403 28.1175 26.8346 23 26.8346Z" fill="#08073F"/>
</g>
<defs>
<clipPath id="clip0_11_410">
<rect width="46" height="46" fill="white"/>
</clipPath>
</defs>
</svg>
