<svg width="24" height="25" viewBox="0 0 24 25" fill="none" xmlns="http://www.w3.org/2000/svg">
<g id="Person add alt 1" clip-path="url(#clip0_20_813)">
<g id="Group">
<path id="Vector" d="M13 8.5C13 6.29 11.21 4.5 9 4.5C6.79 4.5 5 6.29 5 8.5C5 10.71 6.79 12.5 9 12.5C11.21 12.5 13 10.71 13 8.5ZM11 8.5C11 9.6 10.1 10.5 9 10.5C7.9 10.5 7 9.6 7 8.5C7 7.4 7.9 6.5 9 6.5C10.1 6.5 11 7.4 11 8.5ZM1 18.5V20.5H17V18.5C17 15.84 11.67 14.5 9 14.5C6.33 14.5 1 15.84 1 18.5ZM3 18.5C3.2 17.79 6.3 16.5 9 16.5C11.69 16.5 14.78 17.78 15 18.5H3ZM20 15.5V12.5H23V10.5H20V7.5H18V10.5H15V12.5H18V15.5H20Z" fill="black"/>
</g>
</g>
<defs>
<clipPath id="clip0_20_813">
<rect width="24" height="24" fill="white" transform="translate(0 0.5)"/>
</clipPath>
</defs>
</svg>
