<svg width="20" height="21" viewBox="0 0 20 21" fill="none" xmlns="http://www.w3.org/2000/svg">
<g id="Print" clip-path="url(#clip0_15_552)">
<path id="Vector" d="M15.8333 7.16667H15V3H4.99999V7.16667H4.16666C2.78332 7.16667 1.66666 8.28333 1.66666 9.66667V14.6667H4.99999V18H15V14.6667H18.3333V9.66667C18.3333 8.28333 17.2167 7.16667 15.8333 7.16667ZM6.66666 4.66667H13.3333V7.16667H6.66666V4.66667ZM13.3333 14.6667V16.3333H6.66666V13H13.3333V14.6667ZM15 13V11.3333H4.99999V13H3.33332V9.66667C3.33332 9.20833 3.70832 8.83333 4.16666 8.83333H15.8333C16.2917 8.83333 16.6667 9.20833 16.6667 9.66667V13H15Z" fill="#448AFF"/>
<path id="Vector_2" d="M15 10.9167C15.4602 10.9167 15.8333 10.5436 15.8333 10.0833C15.8333 9.6231 15.4602 9.25 15 9.25C14.5398 9.25 14.1667 9.6231 14.1667 10.0833C14.1667 10.5436 14.5398 10.9167 15 10.9167Z" fill="#448AFF"/>
</g>
<defs>
<clipPath id="clip0_15_552">
<rect width="20" height="20" fill="white" transform="translate(0 0.5)"/>
</clipPath>
</defs>
</svg>
