<svg width="20" height="20" viewBox="0 0 20 20" fill="none" xmlns="http://www.w3.org/2000/svg">
<g id="Person" clip-path="url(#clip0_151_278)">
<path id="Vector" d="M10 4.9987C10.9167 4.9987 11.6667 5.7487 11.6667 6.66536C11.6667 7.58203 10.9167 8.33203 10 8.33203C9.08337 8.33203 8.33337 7.58203 8.33337 6.66536C8.33337 5.7487 9.08337 4.9987 10 4.9987ZM10 13.332C12.25 13.332 14.8334 14.407 15 14.9987H5.00004C5.19171 14.3987 7.75837 13.332 10 13.332ZM10 3.33203C8.15837 3.33203 6.66671 4.8237 6.66671 6.66536C6.66671 8.50703 8.15837 9.9987 10 9.9987C11.8417 9.9987 13.3334 8.50703 13.3334 6.66536C13.3334 4.8237 11.8417 3.33203 10 3.33203ZM10 11.6654C7.77504 11.6654 3.33337 12.782 3.33337 14.9987V16.6654H16.6667V14.9987C16.6667 12.782 12.225 11.6654 10 11.6654Z" fill="#1D3A6B"/>
</g>
<defs>
<clipPath id="clip0_151_278">
<rect width="20" height="20" fill="white"/>
</clipPath>
</defs>
</svg>
